<svg id="visual" viewBox="0 0 1920 1024" width="1920" height="1024" xmlns="http://www.w3.org/2000/svg" xmlns:xlink="http://www.w3.org/1999/xlink" version="1.1"><path d="M0 816L45.7 810.8C91.3 805.7 182.7 795.3 274.2 806.5C365.7 817.7 457.3 850.3 548.8 846.8C640.3 843.3 731.7 803.7 823 805C914.3 806.3 1005.7 848.7 1097 864.5C1188.3 880.3 1279.7 869.7 1371.2 852C1462.7 834.3 1554.3 809.7 1645.8 794C1737.3 778.3 1828.7 771.7 1874.3 768.3L1920 765L1920 1025L1874.3 1025C1828.7 1025 1737.3 1025 1645.8 1025C1554.3 1025 1462.7 1025 1371.2 1025C1279.7 1025 1188.3 1025 1097 1025C1005.7 1025 914.3 1025 823 1025C731.7 1025 640.3 1025 548.8 1025C457.3 1025 365.7 1025 274.2 1025C182.7 1025 91.3 1025 45.7 1025L0 1025Z" fill="#ff6f91"></path><path d="M0 838L45.7 835.2C91.3 832.3 182.7 826.7 274.2 832.7C365.7 838.7 457.3 856.3 548.8 864.8C640.3 873.3 731.7 872.7 823 868.3C914.3 864 1005.7 856 1097 851.5C1188.3 847 1279.7 846 1371.2 839.7C1462.7 833.3 1554.3 821.7 1645.8 829.2C1737.3 836.7 1828.7 863.3 1874.3 876.7L1920 890L1920 1025L1874.3 1025C1828.7 1025 1737.3 1025 1645.8 1025C1554.3 1025 1462.7 1025 1371.2 1025C1279.7 1025 1188.3 1025 1097 1025C1005.7 1025 914.3 1025 823 1025C731.7 1025 640.3 1025 548.8 1025C457.3 1025 365.7 1025 274.2 1025C182.7 1025 91.3 1025 45.7 1025L0 1025Z" fill="#ffa2b4"></path><path d="M0 863L45.7 862.7C91.3 862.3 182.7 861.7 274.2 860.2C365.7 858.7 457.3 856.3 548.8 871.7C640.3 887 731.7 920 823 919.3C914.3 918.7 1005.7 884.3 1097 876.8C1188.3 869.3 1279.7 888.7 1371.2 892C1462.7 895.3 1554.3 882.7 1645.8 877.3C1737.3 872 1828.7 874 1874.3 875L1920 876L1920 1025L1874.3 1025C1828.7 1025 1737.3 1025 1645.8 1025C1554.3 1025 1462.7 1025 1371.2 1025C1279.7 1025 1188.3 1025 1097 1025C1005.7 1025 914.3 1025 823 1025C731.7 1025 640.3 1025 548.8 1025C457.3 1025 365.7 1025 274.2 1025C182.7 1025 91.3 1025 45.7 1025L0 1025Z" fill="#ffd1d9"></path><path d="M0 961L45.7 954.7C91.3 948.3 182.7 935.7 274.2 937.7C365.7 939.7 457.3 956.3 548.8 964.2C640.3 972 731.7 971 823 959.8C914.3 948.7 1005.7 927.3 1097 916.8C1188.3 906.3 1279.7 906.7 1371.2 917.2C1462.7 927.7 1554.3 948.3 1645.8 956.5C1737.3 964.7 1828.7 960.3 1874.3 958.2L1920 956L1920 1025L1874.3 1025C1828.7 1025 1737.3 1025 1645.8 1025C1554.3 1025 1462.7 1025 1371.2 1025C1279.7 1025 1188.3 1025 1097 1025C1005.7 1025 914.3 1025 823 1025C731.7 1025 640.3 1025 548.8 1025C457.3 1025 365.7 1025 274.2 1025C182.7 1025 91.3 1025 45.7 1025L0 1025Z" fill="#ffffff"></path></svg>