<svg id="visual" viewBox="0 0 1280 900" width="1280" height="900" xmlns="http://www.w3.org/2000/svg" xmlns:xlink="http://www.w3.org/1999/xlink" version="1.1"><rect x="0" y="0" width="1280" height="900" fill="#ffffff"></rect><path d="M0 667L30.5 675.7C61 684.3 122 701.7 183 713.3C244 725 305 731 366 729.3C427 727.7 488 718.3 548.8 704.8C609.7 691.3 670.3 673.7 731.2 666.8C792 660 853 664 914 678.7C975 693.3 1036 718.7 1097 723.2C1158 727.7 1219 711.3 1249.5 703.2L1280 695L1280 901L1249.5 901C1219 901 1158 901 1097 901C1036 901 975 901 914 901C853 901 792 901 731.2 901C670.3 901 609.7 901 548.8 901C488 901 427 901 366 901C305 901 244 901 183 901C122 901 61 901 30.5 901L0 901Z" fill="#ef3b67"></path><path d="M0 706L30.5 717.5C61 729 122 752 183 760.5C244 769 305 763 366 756.2C427 749.3 488 741.7 548.8 744.7C609.7 747.7 670.3 761.3 731.2 765.3C792 769.3 853 763.7 914 760.3C975 757 1036 756 1097 748.8C1158 741.7 1219 728.3 1249.5 721.7L1280 715L1280 901L1249.5 901C1219 901 1158 901 1097 901C1036 901 975 901 914 901C853 901 792 901 731.2 901C670.3 901 609.7 901 548.8 901C488 901 427 901 366 901C305 901 244 901 183 901C122 901 61 901 30.5 901L0 901Z" fill="#f86693"></path><path d="M0 772L30.5 775C61 778 122 784 183 789.5C244 795 305 800 366 792C427 784 488 763 548.8 757.7C609.7 752.3 670.3 762.7 731.2 765.2C792 767.7 853 762.3 914 758.8C975 755.3 1036 753.7 1097 755.3C1158 757 1219 762 1249.5 764.5L1280 767L1280 901L1249.5 901C1219 901 1158 901 1097 901C1036 901 975 901 914 901C853 901 792 901 731.2 901C670.3 901 609.7 901 548.8 901C488 901 427 901 366 901C305 901 244 901 183 901C122 901 61 901 30.5 901L0 901Z" fill="#fc8cba"></path><path d="M0 832L30.5 829.3C61 826.7 122 821.3 183 817.7C244 814 305 812 366 808.2C427 804.3 488 798.7 548.8 795.3C609.7 792 670.3 791 731.2 794.7C792 798.3 853 806.7 914 814.3C975 822 1036 829 1097 828.5C1158 828 1219 820 1249.5 816L1280 812L1280 901L1249.5 901C1219 901 1158 901 1097 901C1036 901 975 901 914 901C853 901 792 901 731.2 901C670.3 901 609.7 901 548.8 901C488 901 427 901 366 901C305 901 244 901 183 901C122 901 61 901 30.5 901L0 901Z" fill="#fdafdb"></path><path d="M0 849L30.5 851C61 853 122 857 183 859.7C244 862.3 305 863.7 366 864.8C427 866 488 867 548.8 859.7C609.7 852.3 670.3 836.7 731.2 830C792 823.3 853 825.7 914 826.2C975 826.7 1036 825.3 1097 824C1158 822.7 1219 821.3 1249.5 820.7L1280 820L1280 901L1249.5 901C1219 901 1158 901 1097 901C1036 901 975 901 914 901C853 901 792 901 731.2 901C670.3 901 609.7 901 548.8 901C488 901 427 901 366 901C305 901 244 901 183 901C122 901 61 901 30.5 901L0 901Z" fill="#ffd1f4"></path></svg>